<svg width="14" height="8" viewBox="0 0 14 8" fill="none" xmlns="http://www.w3.org/2000/svg">
<path d="M10.2346 0.875H7.73462V2.125H10.2346C11.2659 2.125 12.1096 2.96875 12.1096 4C12.1096 5.03125 11.2659 5.875 10.2346 5.875H7.73462V7.125H10.2346C11.9596 7.125 13.3596 5.725 13.3596 4C13.3596 2.275 11.9596 0.875 10.2346 0.875ZM6.48462 5.875H3.98462C2.95337 5.875 2.10962 5.03125 2.10962 4C2.10962 2.96875 2.95337 2.125 3.98462 2.125H6.48462V0.875H3.98462C2.25962 0.875 0.859619 2.275 0.859619 4C0.859619 5.725 2.25962 7.125 3.98462 7.125H6.48462V5.875ZM4.60962 3.375H9.60962V4.625H4.60962V3.375Z" fill="#0F2830"/>
</svg>
